<svg width="244" height="130" viewBox="0 0 244 130" fill="none" xmlns="http://www.w3.org/2000/svg">
<g clip-path="url(#clip0_12809_9889)">
<path d="M134.544 0L134.79 0.404321L133.255 12.8245C134.33 13.445 135.558 13.8947 136.677 14.4973C148.149 20.6751 154.67 33.8434 152.512 46.795C152.454 47.1396 152.18 48.8208 151.986 48.8805L150.415 48.0951C151.145 44.1223 151.259 40.054 150.482 36.0794C149.983 33.527 149.033 31.1437 148.032 28.763C147.856 28.6353 146.52 29.7978 146.288 30.0037C148.874 35.2936 149.598 41.3184 148.625 47.1098L143.672 44.6632C144.013 40.8172 143.658 36.7406 141.94 33.2631L135.99 37.783L136.437 40.9541L134.181 39.8388C133.692 37.3128 132.544 35.0342 130.817 33.1449C130.634 33.2597 130.662 33.379 130.637 33.5546C130.443 34.9413 130.353 36.3502 130.141 37.7342L122.12 42.1369L163.417 54.6857L163.283 55.2621L150.595 53.752C149.744 55.3531 149.004 56.9985 148.036 58.5345C141.712 68.5726 129.752 74.1596 117.934 72.6616C116.878 72.5277 115.833 72.2488 114.783 72.0837C115.047 71.7329 115.384 70.4907 115.792 70.4226C122.26 71.7479 128.844 70.8485 134.781 68.0584C134.887 67.9112 134.014 66.7639 133.779 66.7602C128.392 69.3398 122.223 70.3433 116.322 69.1243L118.766 64.2922C122.803 64.67 126.817 64.1312 130.521 62.4956L125.904 56.2791L122.475 56.8151L123.545 54.6317C126.055 54.0948 128.451 53.0883 130.284 51.2539L125.571 50.6409L121.529 42.4937L108.556 84.4004L108.157 84.3956L109.823 70.5039C98.0387 65.5588 90.3381 53.4832 90.7571 40.6539L91.3542 35.6276C91.4795 35.4959 93.0715 36.3897 93.1171 36.5365C92.0124 42.7808 92.8822 49.4554 95.9083 55.037L96.7831 54.2931C94.1217 49.0799 93.1965 42.9374 94.3154 37.1692L99.1385 39.5583C99.0897 41.4485 99.0433 43.2481 99.2987 45.1398C99.5723 47.1666 100.197 49.1191 100.945 51.0104L107.274 46.3972L106.856 43.6776C106.981 43.5451 108.957 44.5916 109.11 44.7947C109.291 45.0347 109.327 45.6521 109.454 45.9891C110.1 47.7025 110.961 49.3837 112.297 50.6607L112.807 46.6716L121.172 42.1396L79.9256 29.6007C79.6014 29.5336 79.6175 29.283 79.6386 29.0003L92.8136 30.5198C93.0637 30.4367 93.3488 29.3907 93.5005 29.0757C94.1324 27.7639 94.7921 26.4561 95.5644 25.222C102.401 14.298 115.841 8.5701 128.509 11.483L127.72 13.1436C123.827 12.4905 119.947 12.405 116.062 13.1755C113.473 13.6891 111.006 14.6271 108.63 15.7443C108.579 15.8118 109.311 16.8483 109.401 16.9243C109.53 17.0331 109.564 17.0579 109.743 17.0472C110.05 17.029 111.834 16.1569 112.355 15.9772C116.989 14.3773 121.906 14.0214 126.735 14.9148L124.249 19.8326C120.371 19.2998 116.53 19.9792 112.89 21.3068L117.506 27.5236L120.582 27.1662L119.437 29.3639C116.856 29.8901 114.336 31.0728 112.535 33.023L117.27 33.5547L121.526 41.7824L134.308 0H134.544ZM145.454 28.5026C145.685 28.6381 146.291 28.3842 146.556 28.2909C146.758 28.2198 147.452 28.0322 147.429 27.7782C147.396 27.431 145.846 25.143 145.527 24.7012C142.442 20.4287 137.975 16.7368 133.01 14.9167L132.789 16.9077C138.127 19.2468 142.636 23.4091 145.454 28.5026ZM107.679 16.4563C107.512 16.4173 107.372 16.4632 107.217 16.519C106.702 16.7034 105.486 17.5879 104.975 17.9454C100.424 21.1274 96.7983 25.7165 94.7858 30.8929L96.1909 30.9985C98.281 26.0982 101.756 22.0919 106.129 19.1006C106.408 18.9101 107.927 18.0843 107.984 17.9928C108.202 17.646 107.648 16.884 107.679 16.4563ZM116.913 27.9335L116.729 27.3489C114.384 24.7493 112.486 21.3228 110.165 18.7647C110.011 18.5951 109.839 18.3248 109.577 18.3479L114.96 28.4095C115.314 28.7457 116.398 27.8539 116.913 27.9335ZM140.461 30.4191C140.617 30.2429 138.92 28.0478 138.683 27.7598C136.869 25.5556 134.603 23.6766 132.061 22.3712L131.111 30.5734C131.675 30.9938 132.162 31.5146 132.654 32.0149C132.936 32.3019 133.107 32.9025 133.599 32.7412L140.461 30.4191ZM109.931 22.9629C107.307 24.3581 104.87 26.7082 103.161 29.1511C102.99 29.3954 101.537 31.6235 101.649 31.7215L110.049 32.6111C110.536 31.9221 111.178 31.3701 111.762 30.7715C111.897 30.6334 112.18 30.5173 112.242 30.4191C112.526 29.9727 109.996 23.9597 109.931 22.9629ZM144.898 30.1834V30.3017C144.975 30.2623 144.975 30.2228 144.898 30.1834ZM144.72 30.3022L135.134 35.332C134.798 35.6855 135.69 36.7703 135.61 37.2851L144.72 30.3022ZM98.4535 53.8554L108.161 48.8246C108.344 48.6367 107.778 47.2876 107.624 47.1094C107.523 46.9926 107.472 46.9439 107.331 47.0475L98.4535 53.8554ZM110.877 61.6689L111.944 53.4443L110.111 51.4785L102.595 53.8576C102.46 54.0098 103.774 55.7294 103.968 55.9749C105.782 58.265 108.241 60.4067 110.877 61.6689ZM141.171 52.5557L133.178 51.6003C133.036 51.5872 132.938 51.653 132.822 51.7196C132.724 51.7758 131.281 53.2209 131.224 53.3182C131.132 53.4738 131.066 53.5746 131.133 53.7651L133.481 60.7207C133.697 60.8722 135.26 59.6472 135.547 59.4165C137.861 57.5553 139.781 55.1722 141.171 52.5557ZM148.508 53.3836L146.609 53.3195C144.299 58.5273 140.351 62.9481 135.427 65.8101L135.729 67.3505C136.024 67.6085 139.283 65.2648 139.739 64.9116C142.789 62.5471 147.181 57.6235 148.415 53.9418C148.478 53.7524 148.542 53.591 148.508 53.3836ZM133.715 65.4564L128.45 55.3936C128.1 55.0619 126.984 55.9837 126.498 55.9888L133.715 65.4564ZM97.6082 55.7686L96.4417 55.9884C96.4324 56.0825 96.438 56.1667 96.4648 56.2594C96.6241 56.8091 98.0937 58.8372 98.5228 59.4097C101.471 63.3432 105.546 66.5564 110.048 68.5336L110.154 67.1268C104.892 64.9121 100.355 60.7624 97.6082 55.7686Z" fill="#A90E2E"/>
<path d="M244 111.264V111.738L243.355 111.861L0.19678 111.839L0 111.443L244 111.264Z" fill="#B5304B"/>
<path d="M158.802 129.966C158.41 130.006 157.652 130.01 157.264 129.966C148.739 129.001 149.473 116.604 158.038 116.586C166.741 116.568 167.487 129.082 158.802 129.966ZM157.474 117.807C151.84 118.461 152.18 129.534 158.73 128.77C164.269 128.123 164.014 117.048 157.474 117.807Z" fill="black"/>
<path d="M133.834 129.966C133.422 130.008 132.584 130.015 132.178 129.966C124.58 129.054 123.998 118.159 131.794 116.739C141.193 115.027 143.187 129.014 133.834 129.966ZM136.041 118.882C135.098 117.971 133.669 117.63 132.386 117.805C126.952 118.546 127.142 129.288 133.537 128.78C137.998 128.426 138.829 121.573 136.041 118.882Z" fill="black"/>
<path d="M55.9728 129.966L55.9724 124.994C56.8495 124.782 56.6213 125.618 56.8623 126.295C57.4394 127.915 58.9166 128.903 60.6516 128.787C61.6118 128.723 62.5502 128.088 62.6045 127.062C62.7114 125.042 59.2523 124.074 57.8759 123.15C54.3648 120.793 56.0756 116.188 60.3971 116.722C60.9421 116.79 62.0524 117.422 62.1881 117.424C62.6397 117.43 62.4637 116.279 63.3093 116.591V121.444L62.5989 121.444C62.5569 119.545 61.4416 117.471 59.2551 117.803C57.979 117.997 57.245 119.256 58.039 120.383C58.8346 121.512 61.5958 122.307 62.7768 123.219C65.052 124.976 64.6859 128.078 62.2826 129.472L60.7061 129.966H59.5228L57.1031 129.013C56.7056 129.045 56.5789 129.636 56.5645 129.966H55.9728Z" fill="black"/>
<path d="M82.3606 129.966C78.8822 129.557 76.4095 126.105 76.6959 122.702C77.0552 118.432 81.7922 115.008 85.712 117.44C86.0054 117.622 86.6644 118.309 86.7997 118.365C86.9957 118.446 86.9594 118.29 87.0028 118.216C87.1878 117.904 87.2241 117.531 87.346 117.198L87.9221 117.182V122.035L87.3472 122.019C86.7659 119.31 84.7495 116.937 81.7365 118.038C77.8805 119.447 78.0608 128.44 82.7763 128.78C85.4322 128.971 86.7983 126.836 87.3472 124.538L87.9221 124.521V129.492L87.3418 129.481C87.291 129.207 87.2415 128.932 87.1476 128.668C86.8157 127.735 86.7066 128.41 86.2037 128.78C85.4342 129.345 84.5118 129.852 83.5439 129.966C83.2486 130.001 82.6558 130.001 82.3606 129.966Z" fill="black"/>
<path d="M164.6 104.755V103.57C166.72 103.67 168.293 103.369 168.806 101.089C168.964 100.386 169.065 99.3897 169.102 98.6638C169.297 94.872 169.303 89.8956 169.102 86.1065C169.042 84.9903 168.855 83.0933 168.132 82.2234C167.253 81.1654 165.817 81.4128 164.607 81.1933L164.6 80.0149C169.8 80.3234 175.613 79.4425 180.715 80.408C195.371 83.1818 193.282 104.441 178.627 104.759L164.6 104.755ZM173.238 82.1461V100.434C173.238 100.781 173.66 101.838 173.942 102.097C175.072 103.131 179.309 102.539 180.724 102.003C186.131 99.9578 186.821 91.9495 185.01 87.2379C183.004 82.0182 178.089 81.956 173.238 82.1461Z" fill="black"/>
<path d="M119.516 104.754L119.516 103.57C120.783 103.618 122.361 103.596 123.165 102.426C123.841 101.44 123.964 99.2708 124.018 98.0712C124.173 94.5734 124.169 90.3154 124.019 86.8159C123.967 85.6234 123.859 83.5984 123.282 82.5817C122.476 81.1637 120.922 81.4102 119.523 81.1933L119.516 80.0149C123.513 80.1751 127.671 79.8048 131.651 80.0098C133.192 80.0893 134.827 80.3648 136.243 80.9793C142.116 83.5269 141.768 91.1875 135.877 93.4812C135.282 93.713 134.368 93.8124 133.918 94.0074C133.798 94.0596 133.683 94.1272 133.716 94.277C136.879 97.8015 139.68 102.646 144.715 103.575L144.721 104.754H137.266L129.75 94.3397L128.036 94.2188C128.076 95.4568 127.983 96.7087 128.037 97.9467C128.085 99.014 128.161 100.52 128.476 101.532C129.084 103.479 130.725 103.653 132.533 103.57L132.533 104.754L119.516 104.754ZM128.036 82.1461V91.9112L128.214 92.0888H131.764C136.638 92.0888 137.555 83.9685 133.039 82.4087C132.883 82.3546 132.209 82.1461 132.119 82.1461H128.036Z" fill="black"/>
<path d="M221.458 93.9827C221.731 94.0668 221.64 94.8869 221.619 95.1494C220.617 95.403 219.742 95.1616 218.751 95.6543C216.551 96.7483 217.235 101.504 217.02 103.569C213.885 103.61 210.981 105.25 207.954 105.687C199.78 106.866 193.149 99.2084 193.711 91.3209C194.338 82.5311 204.651 75.3475 212.396 81.1502C212.953 81.5681 213.523 82.2927 214.001 82.6213C214.101 82.6899 214.119 82.786 214.297 82.7375L215.139 80.0273C215.52 80.0344 216.038 79.8829 216.311 80.193V89.9582C216.002 89.9105 215.243 90.0806 215.065 89.8427C214.978 89.7255 214.543 87.8667 214.388 87.4432C213.378 84.6987 211.288 82.0709 208.288 81.471C193.967 78.6067 195.23 109.179 210.39 102.679C215.578 100.455 214.749 95.2608 209.085 95.233L208.974 93.9827L221.458 93.9827Z" fill="black"/>
<path d="M77.154 93.9827L77.1546 95.1669C76.0365 95.224 74.5682 95.22 73.7185 96.0501C72.267 97.4677 72.7674 101.672 72.6581 103.571C69.4606 103.451 66.3097 105.448 63.2483 105.699C54.0437 106.453 47.3704 97.486 49.7607 88.7748C52.0459 80.447 62.2354 75.5856 69.1131 82.0813C69.2569 82.2171 69.6016 82.8946 69.8159 82.7376L70.7031 80.1319L71.8292 80.0155V89.9582L70.6573 89.9465C69.6719 85.1012 66.8325 80.8977 61.3523 81.3129C49.9496 82.1767 51.5122 108.297 65.7379 102.744C71.1883 100.617 70.3727 95.1521 64.492 95.1667L64.4927 93.9827H77.154Z" fill="black"/>
<path d="M79.0473 104.754L79.1582 103.622C82.4357 103.678 83.3589 102.485 83.5496 99.374C83.3053 94.7627 83.8548 89.8534 83.5487 85.2779C83.5015 84.5721 83.3183 83.4705 83.0392 82.8286C82.3451 81.2322 80.565 81.262 79.0468 81.1997L79.1581 80.0671L98.9695 80.032L99.1637 80.3112L99.5191 86.8813C99.2103 86.8334 98.4509 87.0026 98.2732 86.7652C98.1108 86.5484 97.7783 84.7089 97.4865 84.1197C97 83.1377 96.092 82.6559 95.0459 82.418C92.7 81.8843 90.0831 82.2628 87.6854 82.1461V90.55H90.5845C90.8829 90.55 91.9436 90.3301 92.2768 90.2306C94.3733 89.604 93.9839 87.8277 94.1933 86.0516L95.183 86.0687L95.3771 86.3479L95.3253 97.1861L94.1933 97.2975C93.9762 95.5493 94.3879 93.8268 92.3641 93.1495C92.0489 93.0441 91.0988 92.799 90.8212 92.799H87.6855C87.7607 94.9134 87.5336 97.1408 87.8185 99.2352C88.0059 100.613 88.3268 101.883 89.789 102.354C91.3698 102.863 95.5108 102.71 97.0972 102.154C99.1017 101.453 99.2611 99.5833 99.771 97.7859L100.887 97.8807L100.465 104.754L79.0473 104.754Z" fill="black"/>
<path d="M242.107 80.0155L242.529 86.8888L242.385 86.9818C242.102 86.99 241.517 87.1001 241.336 86.8827C241.134 86.6417 240.805 84.7104 240.471 84.0786C239.966 83.125 239.116 82.6693 238.088 82.4373C235.762 81.9125 233.123 82.2489 230.747 82.1461V90.5501H233.883C234.158 90.5501 235.114 90.305 235.425 90.1992C237.273 89.5716 237.065 87.8015 237.189 86.163L238.32 86.0521V97.2969H237.137V95.5806C237.137 95.3588 236.884 94.5365 236.767 94.2935C236.46 93.6555 235.871 93.3213 235.218 93.121C234.83 93.0024 233.891 92.799 233.528 92.799H230.747V98.8949C230.747 99.3498 231.075 100.642 231.28 101.084C231.465 101.484 231.716 101.814 232.085 102.054C233.435 102.933 238.022 102.728 239.623 102.328C241.976 101.74 242.25 99.994 242.71 97.9004L243.882 97.8881L243.527 104.754H222.109L222.108 103.57C223.449 103.626 225.078 103.572 225.876 102.308C226.385 101.503 226.559 99.7414 226.61 98.7814C226.813 94.9565 226.807 89.9332 226.611 86.1057C226.555 85.0125 226.385 83.1458 225.712 82.2709C224.895 81.2101 223.295 81.3544 222.11 81.198L222.109 80.0155L242.107 80.0155Z" fill="black"/>
<path d="M19.4088 104.754L19.4081 103.57C21.5816 103.482 22.7626 103.329 23.9253 101.401C27.3579 94.0807 30.4005 86.5692 33.595 79.1384L34.5685 79.1384L43.1723 99.2708C43.8474 100.501 44.4445 102.271 45.7149 103.001C46.5962 103.507 47.5337 103.485 48.5187 103.57L48.5181 104.754H35.62L35.6193 103.57C37.6579 103.362 40.0138 103.714 39.3302 100.865C38.9904 99.4499 38.0964 98.0523 37.644 96.6599L28.2786 96.6409C27.8532 98.025 26.0995 100.796 26.2943 102.177C26.5017 103.648 29.0976 103.435 30.1776 103.57L30.1768 104.754L19.4088 104.754ZM36.5667 94.4561L33.0153 85.9341L29.2302 94.4561H36.5667Z" fill="black"/>
<path d="M0.120911 95.8765L1.30483 95.8758C1.43584 98.7968 3.00214 101.666 5.75849 102.843C9.00346 104.23 14.0599 103.446 13.3453 98.9235C12.8725 95.931 6.84086 93.8314 4.46302 92.4209C-4.58638 87.0526 2.00727 75.5441 11.6413 80.1507C12.7276 80.6701 12.6665 81.289 13.3597 79.8237C13.4719 79.5866 13.4622 79.3327 13.6033 79.1204L14.6756 79.0685V88.7746L13.4916 88.7753C13.2063 84.8419 11.3006 80.7924 6.70103 81.3303C4.38723 81.6009 2.69066 83.8071 3.842 86.0585C4.98358 88.2907 10.8729 90.4568 13.1281 91.9205C16.688 94.2309 17.9432 98.2476 15.672 102.022C12.855 106.703 6.30191 106.531 2.20735 103.704C1.88974 103.766 1.16523 105.295 1.17432 105.689L0.120925 105.701L0.120911 95.8765Z" fill="black"/>
<path d="M160.222 80.0155L160.221 81.198C159.036 81.3544 157.435 81.2101 156.619 82.2709C155.946 83.1458 155.776 85.0125 155.72 86.1057C155.524 89.9332 155.518 94.9565 155.721 98.7814C155.771 99.7414 155.946 101.503 156.455 102.308C157.252 103.572 158.882 103.626 160.223 103.57L160.222 104.754H147.087L147.198 103.622C150.497 103.748 151.4 102.469 151.59 99.374C151.838 95.3289 151.845 89.4374 151.589 85.3962C151.532 84.4943 151.337 83.1315 150.807 82.3905C149.934 81.171 148.406 81.3722 147.089 81.1979C147.127 80.8089 146.943 80.2956 147.265 80.0155L160.222 80.0155Z" fill="black"/>
<path d="M106.855 117.182L106.856 117.775C104.062 117.419 104.731 120.58 104.607 122.391H110.997V119.372C110.997 119.333 110.823 118.725 110.786 118.636C110.42 117.748 109.602 117.739 108.748 117.775L108.748 117.182H115.375L115.375 117.775C114.051 117.691 113.393 117.941 113.18 119.307C112.917 120.985 112.999 124.937 113.121 126.716C113.227 128.25 113.625 128.866 115.264 128.834L115.375 129.492H108.748L108.859 128.834C109.458 128.741 110.063 128.869 110.526 128.37C110.695 128.188 110.997 127.396 110.997 127.184V123.456H104.607C104.648 124.335 104.55 125.241 104.608 126.118C104.712 127.706 104.869 129.037 106.856 128.782L106.855 129.492H100.347L100.346 128.782C102.142 129.04 102.484 128.024 102.6 126.479C102.732 124.72 102.715 121.965 102.601 120.195C102.501 118.655 102.177 117.546 100.346 117.775L100.347 117.182L106.855 117.182Z" fill="black"/>
<path d="M183.06 117.182L183.06 117.775C181.681 117.682 181.022 117.992 180.845 119.406C180.636 121.075 180.66 124.769 180.807 126.478C180.877 127.284 181.152 128.161 182.062 128.301C182.754 128.408 184.739 128.376 185.455 128.278C186.83 128.092 187.091 127.267 187.377 126.058L188.03 125.941L187.793 129.492H176.433L176.544 128.834C178.183 128.866 178.581 128.25 178.687 126.716C178.787 125.268 178.884 119.966 178.529 118.814C178.209 117.774 177.403 117.732 176.433 117.775L176.433 117.182H183.06Z" fill="black"/>
<path d="M144.898 30.1833C144.975 30.2228 144.975 30.2623 144.898 30.3017V30.1833Z" fill="#FCF8F9"/>
</g>
<defs>
<clipPath id="clip0_12809_9889">
<rect width="244" height="130" fill="white"/>
</clipPath>
</defs>
</svg>
